<!DOCTYPE svg PUBLIC "-//W3C//DTD SVG 1.1//EN" "http://www.w3.org/Graphics/SVG/1.1/DTD/svg11.dtd">
<!-- Uploaded to: SVG Repo, www.svgrepo.com, Transformed by: SVG Repo Mixer Tools -->
<svg version="1.1" id="Layer_1" xmlns="http://www.w3.org/2000/svg" xmlns:xlink="http://www.w3.org/1999/xlink" viewBox="-51.2 -51.2 614.40 614.40" xml:space="preserve" width="256px" height="256px" fill="#000000" stroke="#000000" stroke-width="0.00512">
<g id="SVGRepo_bgCarrier" stroke-width="0"/>
<g id="SVGRepo_tracerCarrier" stroke-linecap="round" stroke-linejoin="round" stroke="#b1b3b4" stroke-width="10.24"> <polygon style="fill:#ac3011;" points="155.826,0 155.826,189.217 0,189.217 0,512 155.826,512 222.609,512 512,512 512,0 "/> <rect y="189.217" style="fill:#ff2600;" width="89.043" height="322.783"/> <rect x="155.826" style="fill:#0051a8;" width="356.174" height="512"/> <rect x="155.826" style="fill:#0069cc;" width="178.087" height="512"/> <path d="M155.826,0v189.217H0V512h512V0H155.826z M33.391,478.609v-256h122.435v256H33.391z M478.609,478.609H367.304V356.174 h-66.783v122.435H189.217V33.391h289.391V478.609z"/> <rect x="66.783" y="267.13" width="55.652" height="44.522"/> <rect x="66.783" y="356.174" width="55.652" height="44.522"/> <rect x="222.609" y="89.043" width="44.522" height="44.522"/> <rect x="222.609" y="178.087" width="44.522" height="44.522"/> <rect x="400.696" y="89.043" width="44.522" height="44.522"/> <rect x="400.696" y="178.087" width="44.522" height="44.522"/> <rect x="311.652" y="89.043" width="44.522" height="44.522"/> <rect x="311.652" y="178.087" width="44.522" height="44.522"/> <rect x="222.609" y="267.13" width="44.522" height="44.522"/> <rect x="222.609" y="356.174" width="44.522" height="44.522"/> <rect x="400.696" y="267.13" width="44.522" height="44.522"/> <rect x="400.696" y="356.174" width="44.522" height="44.522"/> <rect x="311.652" y="267.13" width="44.522" height="44.522"/> </g>
<g id="SVGRepo_iconCarrier"> <polygon style="fill:#ac3011;" points="155.826,0 155.826,189.217 0,189.217 0,512 155.826,512 222.609,512 512,512 512,0 "/> <rect y="189.217" style="fill:#ff2600;" width="89.043" height="322.783"/> <rect x="155.826" style="fill:#0051a8;" width="356.174" height="512"/> <rect x="155.826" style="fill:#0069cc;" width="178.087" height="512"/> <path d="M155.826,0v189.217H0V512h512V0H155.826z M33.391,478.609v-256h122.435v256H33.391z M478.609,478.609H367.304V356.174 h-66.783v122.435H189.217V33.391h289.391V478.609z"/> <rect x="66.783" y="267.13" width="55.652" height="44.522"/> <rect x="66.783" y="356.174" width="55.652" height="44.522"/> <rect x="222.609" y="89.043" width="44.522" height="44.522"/> <rect x="222.609" y="178.087" width="44.522" height="44.522"/> <rect x="400.696" y="89.043" width="44.522" height="44.522"/> <rect x="400.696" y="178.087" width="44.522" height="44.522"/> <rect x="311.652" y="89.043" width="44.522" height="44.522"/> <rect x="311.652" y="178.087" width="44.522" height="44.522"/> <rect x="222.609" y="267.13" width="44.522" height="44.522"/> <rect x="222.609" y="356.174" width="44.522" height="44.522"/> <rect x="400.696" y="267.13" width="44.522" height="44.522"/> <rect x="400.696" y="356.174" width="44.522" height="44.522"/> <rect x="311.652" y="267.13" width="44.522" height="44.522"/> </g>
</svg>